<?xml version="1.0" encoding="utf-8"?>
<!-- Generator: Adobe Illustrator 25.4.1, SVG Export Plug-In . SVG Version: 6.00 Build 0)  -->
<svg version="1.0" id="katman_1" xmlns="http://www.w3.org/2000/svg" xmlns:xlink="http://www.w3.org/1999/xlink" x="0px" y="0px"
	 viewBox="0 0 1280 1024" style="enable-background:new 0 0 1280 1024;" xml:space="preserve">
<style type="text/css">
	.st0{fill-rule:evenodd;clip-rule:evenodd;}
</style>
<path d="M488.4,601.8c2.1-3.4,4.7-5.9,7.9-7.7c3.2-1.8,6.8-2.7,10.6-2.7c4,0,7.7,0.7,10.8,2.2s5.9,3.6,8.1,6.3c2.2,2.8,4,6,5.2,9.8
	s1.8,8,1.8,12.6c0,4.2-0.6,8.3-1.7,12c-1.2,3.8-2.9,7.1-5.1,9.9c-2.2,2.8-4.9,5-8.1,6.6c-3.2,1.6-6.6,2.4-10.5,2.4
	c-4.8,0-8.9-0.9-12-2.8c-3.1-1.9-5.4-4.2-7.1-7.1v8.7h-9.3v-79.7h9.3V601.8z M505.5,599.3c-5.2,0-9.3,1.9-12.6,5.9
	c-3.2,4-4.8,9.7-4.8,17.4c0,3.8,0.5,7.1,1.3,9.9c0.9,2.8,2.1,5.2,3.7,7.1s3.4,3.2,5.5,4.2c2.1,0.9,4.4,1.3,6.9,1.3
	c5.4,0,9.7-2.1,13-6.2c3.3-4.1,4.9-9.7,4.9-16.7c0-7.1-1.5-12.8-4.5-16.9C515.9,601.4,511.5,599.3,505.5,599.3L505.5,599.3z"/>
<path d="M571.1,655.2c-0.8,2.5-1.7,4.8-2.8,6.9c-1,2.1-2.2,3.9-3.8,5.4c-1.5,1.5-3.4,2.7-5.5,3.6c-2.1,0.8-4.8,1.3-7.9,1.3
	c-2.6,0-4.8-0.2-6.6-0.7v-7.3c1.1,0.1,1.9,0.2,2.5,0.2h2.4c2.2,0,4-0.3,5.4-0.8c1.4-0.5,2.6-1.3,3.6-2.4c0.9-1,1.7-2.4,2.4-4
	s1.2-3.4,1.8-5.4h-3.1l-20.9-59.4h10.1l17.2,52.1l15.6-52.1h9.7L571.1,655.2z"/>
<path d="M638.1,643.3h37.1v8.7h-46.6v-79.7h9.5V643.3z"/>
<path d="M690.5,570.7c1.7,0,3.1,0.6,4.3,1.7c1.2,1.2,1.8,2.6,1.8,4.3c0,1.7-0.6,3.2-1.8,4.4c-1.2,1.2-2.7,1.7-4.3,1.7
	c-1.7,0-3.2-0.6-4.4-1.7s-1.8-2.6-1.8-4.4c0-1.7,0.6-3.1,1.8-4.3C687.2,571.3,688.7,570.7,690.5,570.7z M695.1,652h-9.3v-59.3h9.3
	V652z"/>
<path d="M762.7,597.1c-2.2,0-4,0.2-5.5,0.5c-1.5,0.3-2.9,0.9-4.2,1.9c1.3,1.6,2.3,3.4,2.9,5.3c0.7,1.9,0.9,4,0.9,6.1
	c0,2.9-0.6,5.4-1.7,7.7c-1.1,2.3-2.8,4.2-4.8,5.8s-4.6,2.9-7.6,3.8c-3,0.9-6.2,1.3-9.9,1.3c-2.2,0-4.4-0.2-6.4-0.6
	c-2.1-0.4-4.1-1-6-1.9c-0.7,0.7-1.4,1.5-1.9,2.4c-0.5,0.9-0.7,1.7-0.7,2.6c0,1.9,0.6,3.4,1.9,4.4c1.3,1,3.3,1.5,6.2,1.5h12.4
	c4.2,0,7.9,0.5,10.8,1.3c3,0.9,5.4,2.1,7.2,3.6s3.2,3.2,4,5.3c0.8,2.1,1.3,4.2,1.3,6.5c0,5.3-2.4,9.6-7.3,12.8
	c-4.9,3.2-11.7,4.8-20.4,4.8c-5,0-9.1-0.4-12.6-1.3c-3.4-0.8-6.2-1.9-8.4-3.4c-2.1-1.5-3.7-3.2-4.6-5c-0.9-1.9-1.4-4-1.4-6.3
	c0-5.4,3.1-9.5,9.2-12.6c-4.3-2.1-6.5-5.3-6.5-9.7c0-3.6,2-6.8,6-9.7c-2.1-1.6-3.8-3.5-5-5.8c-1.2-2.2-1.8-4.8-1.8-7.7
	c0-2.6,0.5-5,1.5-7.4c1-2.4,2.5-4.4,4.5-6.2c2-1.8,4.5-3.2,7.5-4.3c3-1.1,6.4-1.6,10.3-1.6c3.2,0,6,0.3,8.5,0.9
	c2.5,0.7,4.8,1.5,6.7,2.7c3.1-4.2,8.1-6.2,14.8-6.2v8.3H762.7z M722.7,645.6c-2.8,1.5-4.7,3-5.7,4.6c-1,1.5-1.5,3.2-1.5,4.9
	c0,3,1.3,5.4,4.1,7.3c2.8,1.8,7.5,2.8,14.4,2.8c6,0,10.7-0.9,13.8-2.8c3.1-1.8,4.7-4.3,4.7-7.4c0-1.5-0.3-2.9-0.8-4
	c-0.5-1.1-1.4-2.1-2.8-3c-1.3-0.8-3-1.4-5.2-1.7c-2.1-0.4-4.9-0.5-8.1-0.5L722.7,645.6L722.7,645.6z M732.9,598.5
	c-4.9,0-8.7,1.1-11.2,3.4s-3.8,5.2-3.8,8.8c0,3.7,1.3,6.6,3.9,8.8c2.6,2.1,6.2,3.2,10.8,3.2c4.8,0,8.6-1.1,11.2-3.2
	c2.6-2.1,3.9-5,3.9-8.8c0-3.6-1.2-6.6-3.6-8.8C741.7,599.6,737.9,598.5,732.9,598.5z"/>
<path d="M781.9,601.8c1.9-3.3,4.6-5.8,7.7-7.7c3.2-1.8,6.7-2.8,10.6-2.8c6.6,0,11.8,2,15.2,6c3.4,4,5.2,9.6,5.2,16.7v37.8h-9.3
	v-35.5c0-2.5-0.2-4.8-0.6-6.9c-0.4-2.1-1.1-3.9-2.1-5.4c-1-1.5-2.3-2.6-4-3.5c-1.7-0.8-3.8-1.3-6.2-1.3c-2.3,0-4.4,0.5-6.4,1.3
	c-1.9,0.9-3.7,2.2-5.2,3.9c-1.5,1.7-2.7,3.7-3.6,6.2c-0.9,2.4-1.3,5.2-1.3,8.2v33h-9.3v-79.7h9.3L781.9,601.8z"/>
<path d="M847.6,592.6h16.7v7.2h-16.7v36.3c0,2.9,0.6,5.2,1.8,6.8c1.2,1.6,3.6,2.4,6.9,2.4c1.7,0,3.4-0.1,5.1-0.5
	c1.7-0.3,3.2-0.7,4.4-1v7.5c-1.5,0.5-3.2,0.9-5.2,1.3c-1.9,0.3-4,0.5-6.2,0.5c-3.1,0-5.7-0.4-7.7-1.2c-2.1-0.8-3.7-1.9-5-3.3
	c-1.3-1.4-2.2-3.1-2.8-5c-0.5-1.9-0.8-4-0.8-6.3v-37.5h-8.5v-7.2h8.5v-15.9h9.3L847.6,592.6L847.6,592.6z"/>
<path d="M898,591.4c5.2,0,9.7,0.8,13.6,2.4c3.8,1.5,7.1,3.7,9.8,6.3l-5.6,5.6c-2.3-2-4.9-3.6-7.9-4.8c-3-1.1-6.2-1.7-9.9-1.7
	c-4.3,0-7.7,0.8-9.9,2.4c-2.3,1.6-3.5,3.6-3.5,6.2c0,1.3,0.3,2.6,0.8,3.6c0.5,1,1.4,1.9,2.7,2.6c1.3,0.7,2.9,1.4,5,1.9
	c2.1,0.5,4.6,1,7.7,1.5c3.6,0.6,6.9,1.3,9.5,2.2c2.8,0.9,5,2,6.9,3.4c1.9,1.4,3.3,3.1,4.3,5.1c0.9,2,1.4,4.4,1.4,7.3
	c0,2.6-0.5,5-1.6,7.1s-2.7,4-4.8,5.6c-2.1,1.6-4.8,2.8-7.9,3.8s-6.7,1.3-10.8,1.3c-5.7,0-10.8-0.9-15.2-2.7
	c-4.5-1.8-8.2-4.3-11.2-7.5l6-5.9c2.4,2.7,5.4,4.7,8.8,6.1c3.4,1.4,7.3,2.1,11.4,2.1c5.4,0,9.3-0.9,11.9-2.8
	c2.6-1.8,3.8-4.2,3.8-6.9c0-1.4-0.3-2.7-0.7-3.8c-0.5-1.1-1.4-2.1-2.8-2.9c-1.3-0.8-3.2-1.5-5.4-2.2c-2.3-0.7-5.2-1.2-8.8-1.7
	c-7.1-1.1-12.4-3.1-15.6-5.8c-3.3-2.8-4.9-6.4-4.9-11c0-2.6,0.5-4.9,1.7-6.9c1.1-2.1,2.6-3.8,4.6-5.2c1.9-1.5,4.4-2.6,7.2-3.4
	C891.4,591.8,894.5,591.4,898,591.4L898,591.4z"/>
<path d="M962.6,591.4c4,0,7.5,0.7,10.7,2.3c3.2,1.5,5.9,3.6,8.1,6.3c2.2,2.7,3.9,5.9,5.1,9.7c1.2,3.8,1.8,7.9,1.8,12.2
	c0,4.3-0.5,8.4-1.7,12.2c-1.1,3.8-2.8,7.2-5,9.9c-2.2,2.8-5,5-8.1,6.6s-6.9,2.4-10.9,2.4c-4.4,0-8.2-0.9-11.4-2.7s-5.6-4.2-7.3-7.3
	v27h-9.2v-77.6h9.2v8.9c2-3.2,4.7-5.6,8-7.5C955.1,592.3,958.7,591.4,962.6,591.4L962.6,591.4z M961.2,599.3
	c-5.2,0-9.5,1.9-12.7,5.8c-3.2,3.9-4.8,9.6-4.8,17.1c0,4,0.5,7.4,1.3,10.3c0.9,2.9,2.1,5.2,3.7,7.1c1.5,1.9,3.4,3.2,5.4,4.2
	c2.1,0.9,4.4,1.3,6.8,1.3c5.4,0,9.7-2.1,13-6.2c3.3-4.1,4.9-9.8,4.9-17.2c0-3.4-0.4-6.4-1.1-9.1c-0.7-2.8-1.9-5.2-3.4-7.1
	c-1.5-1.9-3.4-3.5-5.5-4.6C966.6,600,964.1,599.3,961.2,599.3L961.2,599.3z"/>
<path d="M1025.3,591.4c4.2,0,8,0.8,11.3,2.4c3.3,1.6,6,3.8,8.3,6.6c2.2,2.8,4,6,5,9.8c1.1,3.8,1.7,7.7,1.7,11.9v2.1h-44.2
	c0.1,6.6,1.9,11.9,5.1,15.5c3.3,3.7,7.9,5.5,13.9,5.5c4,0,7.4-0.9,10.2-2.6c2.8-1.7,5-4,6.6-6.9l7.7,4.2c-2.7,4.2-6,7.5-10.2,9.7
	c-4.2,2.3-9.1,3.5-14.8,3.5c-4.6,0-8.6-0.8-12.2-2.4s-6.5-3.8-8.9-6.6c-2.4-2.8-4.2-6-5.4-9.9c-1.2-3.8-1.8-7.9-1.8-12.2
	s0.6-8.4,1.7-12.2c1.2-3.8,2.9-7.1,5.2-9.8c2.3-2.8,5.1-5,8.5-6.5C1016.8,592.2,1020.7,591.4,1025.3,591.4z M1025,599.1
	c-5.3,0-9.5,1.7-12.5,5c-3,3.3-4.7,7.7-5,13h34.4c-0.4-5.4-2-9.8-4.8-13.1C1034.2,600.8,1030.2,599.1,1025,599.1z"/>
<path d="M1088.2,591.4c4.2,0,8,0.8,11.3,2.4c3.3,1.6,6,3.8,8.3,6.6c2.2,2.8,4,6,5,9.8c1.1,3.8,1.7,7.7,1.7,11.9v2.1h-44.2
	c0.1,6.6,1.9,11.9,5.1,15.5c3.3,3.7,7.9,5.5,13.9,5.5c4,0,7.4-0.9,10.2-2.6c2.8-1.7,5-4,6.6-6.9l7.7,4.2c-2.7,4.2-6,7.5-10.2,9.7
	c-4.2,2.3-9.1,3.5-14.8,3.5c-4.6,0-8.6-0.8-12.2-2.4s-6.5-3.8-8.9-6.6c-2.4-2.8-4.2-6-5.4-9.9c-1.2-3.8-1.8-7.9-1.8-12.2
	s0.6-8.4,1.7-12.2c1.2-3.8,2.9-7.1,5.2-9.8c2.3-2.8,5.1-5,8.5-6.5C1079.6,592.2,1083.6,591.4,1088.2,591.4z M1087.9,599.1
	c-5.3,0-9.5,1.7-12.5,5c-3,3.3-4.7,7.7-5,13h34.4c-0.4-5.4-2-9.8-4.8-13.1C1097.1,600.8,1093.1,599.1,1087.9,599.1z"/>
<path d="M1177.4,652h-9.3v-9.1c-1.9,3.3-4.6,5.8-7.9,7.7c-3.3,1.8-6.9,2.8-10.9,2.8c-4,0-7.7-0.7-10.8-2.3c-3.2-1.5-5.9-3.6-8.1-6.3
	c-2.2-2.7-3.9-5.9-5.1-9.7c-1.1-3.8-1.7-7.9-1.7-12.4c0-4.5,0.6-8.6,1.8-12.4s3-7.1,5.2-9.9c2.2-2.8,5-5,8.2-6.5s6.9-2.4,10.9-2.4
	c4.5,0,8.3,0.9,11.3,2.7c3,1.8,5.4,4.1,7.2,7v-28.8h9.3V652z M1151.1,599.3c-5.7,0-10.1,2.1-13.2,6.2c-3.1,4.1-4.6,9.7-4.6,16.9
	c0,7.1,1.5,12.8,4.4,16.8c2.9,4,7.3,6.1,13.3,6.1c5.2,0,9.4-1.9,12.6-5.8c3.3-3.9,4.9-9.7,4.9-17.3c0-3.8-0.5-7.1-1.3-9.9
	c-0.9-2.8-2.1-5.2-3.7-7.1c-1.5-1.9-3.4-3.3-5.5-4.3C1155.8,599.9,1153.5,599.3,1151.1,599.3L1151.1,599.3z"/>
<g>
	<path class="st0" d="M334.5,352.1H171c-37.7,0-68.2,30.6-68.2,68.2V584c0,37.7,30.6,68.2,68.2,68.2h163.6
		c37.7,0,68.2-30.6,68.2-68.2V420.3C402.8,382.7,372.2,352.1,334.5,352.1L334.5,352.1z M290.3,432.8c7.5,0,13.6,6,13.6,13.6
		c0,7.5-6,13.6-13.6,13.6c-7.5,0-13.6-6-13.6-13.6S282.9,432.8,290.3,432.8z M290.3,471.1c7.5,0,13.6,6,13.6,13.6
		c0,7.5-6,13.6-13.6,13.6c-7.5,0-13.6-6-13.6-13.6C276.8,477.1,282.9,471.1,290.3,471.1z M252.2,432.8c7.5,0,13.6,6,13.6,13.6
		c0,7.5-6,13.6-13.6,13.6s-13.6-6-13.6-13.6S244.7,432.8,252.2,432.8z M252.2,471.1c7.5,0,13.6,6,13.6,13.6c0,7.5-6,13.6-13.6,13.6
		s-13.6-6-13.6-13.6C238.6,477.1,244.7,471.1,252.2,471.1z M214,432.8c7.5,0,13.6,6,13.6,13.6c0,7.5-6,13.6-13.6,13.6
		c-7.5,0-13.6-6-13.6-13.6S206.6,432.8,214,432.8z M214,471.1c7.5,0,13.6,6,13.6,13.6c0,7.5-6,13.6-13.6,13.6
		c-7.5,0-13.6-6-13.6-13.6C200.5,477.1,206.6,471.1,214,471.1z M177.4,614.1c-14.3,0-25.9-11.6-25.9-25.9
		c0-14.3,11.6-25.9,25.9-25.9c14.3,0,25.9,11.6,25.9,25.9S191.7,614.1,177.4,614.1z M326.9,615.2c-14.3,0-25.9-11.6-25.9-25.9
		c0-14.3,11.6-25.9,25.9-25.9c14.3,0,25.9,11.6,25.9,25.9S341.3,615.2,326.9,615.2z M372.5,404.6l-26.7,99.7
		c-7.1,26.6-29.7,43.3-57.2,43.3h-17.7c-5.8,0-14.3-3.2-17.8-6.4c-0.6-0.5-1.5-0.5-2.1,0c-3.5,3.3-12,6.4-17.8,6.4h-19.4
		c-26.7,0-46.9-15.2-55-40.6L136,435.7c-0.5-1.4-0.2-3,0.7-4.2c0.9-1.2,2.2-1.9,3.8-1.9h4.4c10.5,0.1,19.7,6.8,22.8,16.8l16.7,52.5
		c4.5,14.2,19,23.8,33.9,23.8h6.5c6.7,0,11.4-3.4,14.2-6.5c1.5-1.6,3.6-2.6,5.7-2.6h14.6c2.1,0,4.1,0.8,5.4,2.4
		c2.8,3,7.7,6.7,14.4,6.7h6.2c15.4,0,30.4-10.4,34.4-25.3l21.7-80.7c2.8-10.5,12.4-17.9,23.2-17.9h3.8c0.3,0,0.7,0.1,1.1,0.2
		C372,400.1,373,402.5,372.5,404.6z"/>
	<path class="st0" d="M326.9,580.1c-5.1,0-9.3,4.2-9.3,9.3s4.2,9.3,9.3,9.3s9.3-4.2,9.3-9.3C336.3,584.2,332.1,580.1,326.9,580.1z"
		/>
	<path class="st0" d="M177.4,578.9c-5.1,0-9.3,4.2-9.3,9.3s4.2,9.3,9.3,9.3s9.3-4.2,9.3-9.3S182.5,578.9,177.4,578.9z"/>
</g>
<path d="M756.2,497.9c-4.8,0-10-0.2-12.3,4c-7.3,13.1-23.8,17.3-37.5,17.3c-27.1,0-47.7-22-47.7-49c0-27,20.6-49,47.7-49
	c12,0,27.7,2.4,37,16.4c2.6,4,7.9,3.1,12.6,3.1c6.7,0,5.1-8,2.5-12c-13.5-20.5-35.8-24.8-52.1-24.8c-36.6,0-66.4,29.8-66.4,66.3
	s29.8,66.3,66.4,66.3c23.7,0,44.1-10.2,53.2-26.7C761.9,505.5,763.2,497.9,756.2,497.9L756.2,497.9z"/>
<path d="M1005.7,407.2c-4.8,0-8.7,2.1-8.7,6.9v114.5c0,4.8,3.9,6.2,8.7,6.2s8.7-1.5,8.7-6.2V414
	C1014.3,409.3,1010.5,407.2,1005.7,407.2L1005.7,407.2z"/>
<path d="M1005.7,352.1c-6,0-10.9,4.9-10.9,10.9s4.9,10.9,10.9,10.9c6,0,10.9-4.9,10.9-10.9S1011.7,352.1,1005.7,352.1z"/>
<path d="M956.7,407.8c-0.2,0-0.5,0-0.5,0s-8.1,0-10.6,6.2c-2.4,6-15.4,46.9-29.2,86.7c-0.5,1.3-1,2.6-1.5,3.8l-29.6-74.3
	c-1.3-3.2-3.3-5.6-5.8-7c-1.5-0.9-3.1-1.5-5.2-1.5c0,0,0,0-0.1,0s0,0-0.1,0c-2,0-3.7,0.6-5.2,1.5c-2.6,1.4-4.5,3.8-5.8,7l-29.6,74.3
	c-0.5-1.3-1-2.6-1.5-3.8C818.4,460.6,805.5,420,803,414c-2.5-6.2-10.9-6.2-11.2-6.2c-4.4,0.1-6.1,1.2-6,4c0,0.7,0,1.3,0.3,2.1
	c0.7,2.6,21.4,65.6,38.2,113.4c1.1,3.1,3.5,7.5,9.1,7.5c3.7,0,6.4-2.5,7.5-5l31.6-80.6c0.3-0.7,1-1.1,1.7-1.1c0.7,0,1.3,0.4,1.7,1.1
	l31.6,80.6c1,2.6,4,5,7.5,5c5.7,0,8.1-4.4,9.1-7.5c15.8-48,37.5-110.9,38.2-113.4c0.2-0.8,0.3-1.5,0.3-2.1
	C962.8,409.1,961.1,407.9,956.7,407.8L956.7,407.8z"/>
<path d="M479.1,527.7c0,4,3.2,7.3,7.3,7.3H615c4.6,0,6.6-4,6.6-9c0-5-2-9-6.6-9H501.7c-1.9,0-3.4-1.5-3.4-3.4v-64.1h99.1
	c4.6,0,6.6-4,6.6-9c0-5-2-9-6.6-9h-99.1v-57.6c0-2,1.6-3.6,3.6-3.6h113.2c4.6,0,6.6-4,6.6-9s-2.1-9-6.7-9H486.3
	c-4,0-7.3,3.2-7.3,7.3V527.7z"/>
<path d="M1168.8,352.1c-4.8,0-8.7,2.1-8.7,6.9v66.5c-9.8-16.1-28.8-21.6-45.5-21.6c-36.6,0-66.4,29.8-66.4,66.2s29.8,66.2,66.4,66.2
	c14.3,0,36.5-7.1,45.5-22.7v14.6v0.1c0,0.2,0,0.3,0.1,0.3c0.2,4.4,4,5.9,8.6,5.9c4.8,0,8.7-1.5,8.7-6.2v-18.1V369.7v-10.7
	C1177.4,354.2,1173.6,352.1,1168.8,352.1L1168.8,352.1z M1114.6,519.1c-27.1,0-47.4-22-47.4-49s20.4-49,47.4-49
	c15.7,0,45.3,9.4,45.5,44.4v7.9C1159.9,507.9,1128.8,519.1,1114.6,519.1L1114.6,519.1z"/>
</svg>
